<?xml version="1.0"?>
<svg xmlns="http://www.w3.org/2000/svg" viewBox="0 0 24 24">
    <path d="M 12 2 C 9.6 2 7.6 3.8875 7.5 6.1875 C 7.2 6.0875 6.9 6.09375 6.5 6.09375 C 4 6.09375 2 8.09375 2 10.59375 C 2 12.49375 3.20625 14.2125 4.90625 14.8125 C 4.40625 15.5125 3.90625 16.4 3.90625 17.5 C 4.00625 19.9 6.1 22 8.5 22 C 9.9 22 11.2 21.3125 12 20.3125 C 12.8 21.3125 14.1 22 15.5 22 C 18 22 20 20 20 17.5 C 20 16.5 19.59375 15.5125 19.09375 14.8125 C 20.79375 14.2125 22 12.49375 22 10.59375 C 22 8.09375 20 6.09375 17.5 6.09375 C 17.2 6.09375 16.8 6.0875 16.5 6.1875 C 16.4 3.8875 14.4 2 12 2 z M 12 4 C 13.4 4 14.5 5.1 14.5 6.5 C 14.5 6.9 14.3875 7.19375 14.1875 7.59375 L 13 9.53125 L 13 7 L 11 7 L 11 9.53125 L 9.8125 7.59375 C 9.6125 7.19375 9.5 6.9 9.5 6.5 C 9.5 5.1 10.6 4 12 4 z M 6.5 8.09375 C 7 8.09375 7.4125 8.3 7.8125 8.5 L 9.375 10.875 L 7.40625 10.09375 L 6.59375 11.90625 L 8.65625 12.71875 C 7.6079932 12.909808 6.5551803 13.09375 6.5 13.09375 C 5.2 13.09375 4 11.99375 4 10.59375 C 4 9.19375 5.2 8.09375 6.5 8.09375 z M 17.59375 8.09375 C 18.99375 8.09375 20.09375 9.19375 20.09375 10.59375 C 20.09375 11.99375 18.8 13.09375 17.5 13.09375 C 17.4443 13.09375 16.402991 12.911167 15.375 12.71875 L 17.40625 11.90625 L 16.59375 10.09375 L 14.75 10.8125 L 16.3125 8.5 C 16.6125 8.3 16.99375 8.09375 17.59375 8.09375 z M 9.4375 14.71875 L 8.1875 16.40625 L 9.8125 17.59375 L 11 16.03125 L 11 18 C 10.8 18.9 9.8 20 8.5 20 C 7 20 6 18.7 6 17.5 C 6 16.2 7.2875 15.3875 7.6875 15.1875 L 9.4375 14.71875 z M 14.5625 14.71875 L 16.40625 15.1875 C 16.90625 15.3875 18 16.3 18 17.5 C 18 18.8 16.9 20 15.5 20 C 14.2 20 13.2 18.9 13 18 L 13 16.03125 L 14.1875 17.59375 L 15.8125 16.40625 L 14.5625 14.71875 z"/>
</svg>
