<?xml version="1.0"?>
<svg xmlns="http://www.w3.org/2000/svg" width="50" height="50" viewBox="0 0 50 50">
    <path d="M48.361,18.968c-1.66-6.06-9.933-6.742-12.94-6.785c-0.888-2.436-4.202-10.198-10.39-10.198 c-6.152,0-9.466,7.68-10.375,10.159c-0.206-0.007-0.446-0.012-0.716-0.012c-3.09,0-10.467,0.665-12.231,6.826 c-1.887,6.585,4.346,11.564,6.477,13.042c-0.757,2.458-2.598,10.135,2.387,14.29c1.373,1.146,3.024,1.727,4.909,1.727 c4.062,0,8.113-2.717,9.603-3.829c1.569,0.984,5.816,3.388,9.905,3.388c1.683,0,3.166-0.408,4.409-1.214 c5.063-3.283,3.145-11.861,2.445-14.389C43.834,30.426,50.022,25.042,48.361,18.968z M25.73,25.952c0,0,5.912,4.25,3.779,5.971 c-2.136,1.72-4.51-5.438-4.51-5.438s-2.571,7.107-4.509,5.438c-1.939-1.669,3.78-5.971,3.78-5.971s-7.524-0.048-6.567-2.607 s6.844,1.75,6.844,1.75S22.301,18.044,25,18.044s0.451,7.051,0.451,7.051s5.847-4.302,6.844-1.75 C33.294,25.896,25.73,25.952,25.73,25.952z"/>
</svg>
